<?xml version="1.0" encoding="utf-8"?>
<!-- Generator: Adobe Illustrator 16.0.3, SVG Export Plug-In . SVG Version: 6.00 Build 0)  -->
<!DOCTYPE svg PUBLIC "-//W3C//DTD SVG 1.1//EN" "http://www.w3.org/Graphics/SVG/1.1/DTD/svg11.dtd">
<svg version="1.1" id="Layer_1" xmlns="http://www.w3.org/2000/svg" xmlns:xlink="http://www.w3.org/1999/xlink" x="0px" y="0px"
	 width="910px" height="270.5px" viewBox="0 0 910 270.5" style="enable-background:new 0 0 910 270.5;" xml:space="preserve">
<style type="text/css">
<![CDATA[
	.st0{fill-rule:evenodd;clip-rule:evenodd;fill:none;}
	.st1{fill-rule:evenodd;clip-rule:evenodd;fill:#18171C;}
	.st2{fill-rule:evenodd;clip-rule:evenodd;fill:#EAEDEE;}
	.st3{stroke:#FFFFFF;stroke-miterlimit:10;}
	.st4{fill-rule:evenodd;clip-rule:evenodd;}
	.st5{fill:#FFFFFF;}
	.st6{fill:none;}
	.st7{fill-rule:evenodd;clip-rule:evenodd;fill:#275BA0;}
	.st8{fill:none;stroke:#C4C7C9;stroke-width:1.92;stroke-miterlimit:10;}
	.st9{fill-rule:evenodd;clip-rule:evenodd;fill:#333333;}
	.st10{fill:none;stroke:#FFFFFF;stroke-width:3;stroke-miterlimit:10;}
	.st11{fill-rule:evenodd;clip-rule:evenodd;fill:#008A45;}
]]>
</style>
<path class="st9" d="M866.518,169.147c0-1.159-0.235-1.624-2.607-1.624h-0.711c2.606,0,4.74-2.088,4.74-4.408V28.555
	c0-2.552-2.369-4.872-4.979-4.872H648.138c-2.608,0-4.979,2.319-4.979,4.872v134.56c0,2.32,1.897,4.408,4.506,4.408h-1.896
	c-2.371,0-4.27,0.465-4.27,1.624l-29.4,72.615c0,2.089,3.082,5.104,6.874,5.104h269.36c4.267,0,7.589-3.016,7.589-5.104
	L866.518,169.147L866.518,169.147L866.518,169.147z M650.747,32.963c0-2.552,1.896-4.408,4.503-4.408h200.6
	c2.607,0,4.503,1.856,4.503,4.408v125.744c0,2.319-1.896,4.177-4.503,4.177h-200.6c-2.607,0-4.503-1.857-4.503-4.177V32.963
	L650.747,32.963L650.747,32.963z M660.23,216.011h-11.617l-2.608,7.191h-2.135l3.318-9.046l13.517,0.465L660.23,216.011
	L660.23,216.011L660.23,216.011z M664.025,204.874l-11.383,0.465l-2.371,6.264h-2.607l3.32-8.583h13.988L664.025,204.874
	L664.025,204.874L664.025,204.874z M669.005,191.65l-0.714,1.858h-12.092l-1.896,6.727h-2.371l3.082-8.585H669.005L669.005,191.65
	L669.005,191.65z M655.964,188.635l2.845-8.583h13.988l-0.711,1.854H660.23l-2.136,7.193L655.964,188.635L655.964,188.635
	L655.964,188.635z M682.282,204.874h-11.62l-2.133,6.729h-2.134l2.846-8.583h13.988L682.282,204.874L682.282,204.874
	L682.282,204.874z M686.549,193.509h-12.092l-1.896,6.957l-2.371-0.23l3.083-8.585h13.988L686.549,193.509L686.549,193.509
	L686.549,193.509z M674.222,189.1l2.846-9.048h13.987l-0.711,1.854h-11.856l-2.132,7.193H674.222L674.222,189.1L674.222,189.1z
	 M704.809,193.509h-12.094l-1.896,6.957h-2.372l3.083-8.815h13.988L704.809,193.509L704.809,193.509L704.809,193.509z
	 M708.84,181.906h-12.095l-2.133,7.193h-2.135l3.083-9.048h13.752L708.84,181.906L708.84,181.906L708.84,181.906z M712.87,189.1
	h-2.135l3.32-9.048l13.515,0.231l-0.476,2.089l-12.092-0.466L712.87,189.1L712.87,189.1L712.87,189.1z M782.106,219.956h-52.164
	l-4.268,13.456h-3.559l5.454-16.705h54.774L782.106,219.956L782.106,219.956L782.106,219.956z M650.271,167.523h208.186v2.32
	H650.271V167.523L650.271,167.523L650.271,167.523z"/>
<g>
	<path class="st11" d="M131.498,191.59c0,1.488-0.891,2.379-2.381,2.379c-97.359,0-97.359,0-97.359,0
		c-1.19,0-2.381-0.891-2.381-2.379c0-97.361,0-137.361,0-137.361c0-1.19,1.19-2.38,2.381-2.38c97.359,0,97.359,0,97.359,0
		c1.49,0,2.381,1.19,2.381,2.38V191.59z"/>
	<g>
		<path class="st5" d="M55.82,85.272V74.316h-4.054v-2.381h10.892v2.381h-4.026v10.956H55.82z"/>
		<path class="st5" d="M69.829,84.05c-0.34,0.513-0.786,0.904-1.336,1.172s-1.191,0.403-1.92,0.403c-0.978,0-1.73-0.271-2.259-0.815
			c-0.529-0.543-0.793-1.316-0.793-2.318c0-0.929,0.265-1.639,0.793-2.128c0.529-0.489,1.402-0.824,2.621-1.005
			c0.278-0.042,0.643-0.09,1.095-0.145c1.144-0.145,1.716-0.468,1.716-0.969c0-0.398-0.127-0.684-0.38-0.855
			s-0.677-0.258-1.271-0.258c-0.544,0-0.962,0.106-1.252,0.317c-0.291,0.211-0.436,0.513-0.436,0.906v0.145h-2.523v-0.181
			c0-1.008,0.365-1.8,1.095-2.377c0.729-0.577,1.738-0.865,3.024-0.865c1.41,0,2.491,0.239,3.243,0.715
			c0.751,0.477,1.127,1.165,1.127,2.064v5.596c0,0.411,0.043,0.717,0.13,0.919s0.232,0.354,0.436,0.457v0.444h-2.811
			c-0.093-0.169-0.164-0.356-0.213-0.562C69.863,84.505,69.835,84.285,69.829,84.05z M69.782,80.428
			c-0.439,0.199-0.945,0.359-1.517,0.48c-0.572,0.121-0.868,0.184-0.886,0.19c-0.477,0.133-0.809,0.299-0.997,0.498
			c-0.189,0.199-0.283,0.474-0.283,0.824c0,0.362,0.121,0.65,0.362,0.865s0.566,0.321,0.974,0.321c0.73,0,1.304-0.201,1.721-0.602
			s0.626-0.949,0.626-1.644V80.428z"/>
		<path class="st5" d="M74.727,85.272V75.43h2.505v1.684c0.353-0.676,0.764-1.172,1.234-1.489s1.03-0.476,1.679-0.476
			c0.105,0,0.187,0.002,0.246,0.005c0.059,0.003,0.106,0.007,0.144,0.013l0.009,2.671h-0.9c-0.736,0-1.29,0.187-1.661,0.561
			c-0.371,0.375-0.557,0.93-0.557,1.666v5.207H74.727z"/>
		<path class="st5" d="M81.787,86.223l2.95-0.009c0.086,0.332,0.265,0.579,0.534,0.742s0.629,0.245,1.081,0.245
			c0.841,0,1.429-0.174,1.763-0.521c0.334-0.348,0.501-0.989,0.501-1.924v-0.878c-0.285,0.477-0.654,0.829-1.108,1.055
			c-0.455,0.226-1.022,0.339-1.703,0.339c-1.305,0-2.351-0.454-3.136-1.363c-0.786-0.908-1.178-2.117-1.178-3.626
			c0-1.594,0.385-2.86,1.155-3.798c0.77-0.939,1.807-1.408,3.112-1.408c0.68,0,1.26,0.127,1.74,0.38
			c0.479,0.253,0.87,0.64,1.173,1.159V75.43h2.561v9.19c0,1.032-0.099,1.82-0.297,2.363c-0.198,0.543-0.535,0.999-1.011,1.367
			c-0.408,0.308-0.926,0.542-1.554,0.702c-0.628,0.16-1.344,0.24-2.148,0.24c-1.349,0-2.409-0.269-3.182-0.806
			C82.266,87.949,81.849,87.194,81.787,86.223z M84.227,80.192c0,0.924,0.19,1.633,0.571,2.128s0.923,0.742,1.628,0.742
			c0.711,0,1.254-0.247,1.628-0.742c0.374-0.495,0.561-1.216,0.561-2.164c0-0.899-0.193-1.595-0.58-2.087
			c-0.387-0.492-0.936-0.738-1.647-0.738c-0.687,0-1.219,0.25-1.596,0.751C84.416,78.584,84.227,79.287,84.227,80.192z"/>
		<path class="st5" d="M99.822,82.284h2.69c-0.272,1.038-0.821,1.852-1.646,2.44s-1.833,0.883-3.02,0.883
			c-1.46,0-2.616-0.479-3.47-1.435s-1.28-2.253-1.28-3.889c0-1.612,0.42-2.882,1.262-3.812c0.841-0.93,1.991-1.395,3.451-1.395
			c1.546,0,2.74,0.457,3.581,1.372s1.262,2.217,1.262,3.907c0,0.187-0.001,0.328-0.004,0.421c-0.003,0.094-0.011,0.183-0.023,0.267
			h-6.735c0.037,0.773,0.23,1.355,0.58,1.748c0.349,0.393,0.852,0.588,1.507,0.588c0.464,0,0.844-0.089,1.141-0.267
			C99.414,82.935,99.649,82.658,99.822,82.284z M95.889,79.314h3.971c-0.025-0.664-0.206-1.169-0.542-1.517
			c-0.337-0.347-0.821-0.521-1.452-0.521c-0.587,0-1.05,0.175-1.387,0.525C96.141,78.152,95.944,78.656,95.889,79.314z"/>
		<path class="st5" d="M108.914,85.344c-0.248,0.006-0.542,0.017-0.886,0.032s-0.562,0.023-0.654,0.023
			c-1.033,0-1.739-0.189-2.12-0.566c-0.38-0.377-0.571-1.122-0.571-2.232v-5.324h-1.336V75.43h1.336v-2.689h2.672v2.689h1.559v1.847
			h-1.559v5.451c0,0.26,0.059,0.43,0.176,0.512c0.117,0.082,0.359,0.122,0.724,0.122h0.659V85.344z"/>
	</g>
	<g>
		<g>
			<g>
				<path class="st2" d="M118.65,114.999c0,0.6-0.6,1.2-1.19,1.2c-75.02,0-75.02,0-75.02,0c-0.59,0-1.19-0.6-1.19-1.2
					c0-0.6,0.6-1.2,1.19-1.2c75.02,0,75.02,0,75.02,0C118.051,113.799,118.65,114.399,118.65,114.999z"/>
			</g>
			<g>
				<path class="st2" d="M118.65,120.999c0,0.6-0.6,1.2-1.19,1.2c-75.02,0-75.02,0-75.02,0c-0.59,0-1.19-0.6-1.19-1.2
					c0-0.6,0.6-1.2,1.19-1.2c75.02,0,75.02,0,75.02,0C118.051,119.799,118.65,120.399,118.65,120.999z"/>
			</g>
			<g>
				<path class="st2" d="M118.65,126.999c0,0.6-0.6,1.2-1.19,1.2c-75.02,0-75.02,0-75.02,0c-0.59,0-1.19-0.6-1.19-1.2
					c0-0.6,0.6-1.2,1.19-1.2c75.02,0,75.02,0,75.02,0C118.051,125.799,118.65,126.399,118.65,126.999z"/>
			</g>
			<g>
				<path class="st2" d="M118.65,132.999c0,0.6-0.6,1.2-1.19,1.2c-75.02,0-75.02,0-75.02,0c-0.59,0-1.19-0.6-1.19-1.2
					c0-0.6,0.6-1.2,1.19-1.2c75.02,0,75.02,0,75.02,0C118.051,131.799,118.65,132.399,118.65,132.999z"/>
			</g>
			<g>
				<path class="st2" d="M118.65,138.999c0,0.6-0.6,1.2-1.19,1.2c-75.02,0-75.02,0-75.02,0c-0.59,0-1.19-0.6-1.19-1.2
					c0-0.6,0.6-1.2,1.19-1.2c75.02,0,75.02,0,75.02,0C118.051,137.799,118.65,138.399,118.65,138.999z"/>
			</g>
			<g>
				<path class="st2" d="M118.65,145c0,0.6-0.6,1.199-1.19,1.199c-75.02,0-75.02,0-75.02,0c-0.59,0-1.19-0.6-1.19-1.199
					c0-0.601,0.6-1.201,1.19-1.201c75.02,0,75.02,0,75.02,0C118.051,143.799,118.65,144.399,118.65,145z"/>
			</g>
			<g>
				<path class="st2" d="M118.65,151c0,0.599-0.6,1.199-1.19,1.199c-75.02,0-75.02,0-75.02,0c-0.59,0-1.19-0.601-1.19-1.199
					c0-0.601,0.6-1.2,1.19-1.2c75.02,0,75.02,0,75.02,0C118.051,149.8,118.65,150.399,118.65,151z"/>
			</g>
			<g>
				<path class="st2" d="M118.65,156.999c0,0.599-0.6,1.2-1.19,1.2c-75.02,0-75.02,0-75.02,0c-0.59,0-1.19-0.602-1.19-1.2
					c0-0.6,0.6-1.199,1.19-1.199c75.02,0,75.02,0,75.02,0C118.051,155.8,118.65,156.399,118.65,156.999z"/>
			</g>
			<g>
				<path class="st2" d="M118.65,162.998c0,0.6-0.6,1.201-1.19,1.201c-75.02,0-75.02,0-75.02,0c-0.59,0-1.19-0.602-1.19-1.201
					s0.6-1.199,1.19-1.199c75.02,0,75.02,0,75.02,0C118.051,161.799,118.65,162.398,118.65,162.998z"/>
			</g>
			<g>
				<path class="st2" d="M118.65,168.998c0,0.6-0.6,1.201-1.19,1.201c-75.02,0-75.02,0-75.02,0c-0.59,0-1.19-0.602-1.19-1.201
					s0.6-1.199,1.19-1.199c75.02,0,75.02,0,75.02,0C118.051,167.799,118.65,168.398,118.65,168.998z"/>
			</g>
		</g>
		<g>
			<g>
				<path class="st2" d="M106.95,180.699c-0.6,0-1.2-0.6-1.2-1.191c0-75.019,0-75.019,0-75.019c0-0.59,0.6-1.19,1.2-1.19
					c0.6,0,1.2,0.6,1.2,1.19c0,75.019,0,75.019,0,75.019C108.15,180.1,107.55,180.699,106.95,180.699z"/>
			</g>
			<g>
				<path class="st2" d="M100.95,180.699c-0.6,0-1.2-0.6-1.2-1.191c0-75.019,0-75.019,0-75.019c0-0.59,0.6-1.19,1.2-1.19
					c0.6,0,1.2,0.6,1.2,1.19c0,75.019,0,75.019,0,75.019C102.15,180.1,101.55,180.699,100.95,180.699z"/>
			</g>
			<g>
				<path class="st2" d="M94.95,180.699c-0.6,0-1.2-0.6-1.2-1.191c0-75.019,0-75.019,0-75.019c0-0.59,0.6-1.19,1.2-1.19
					c0.6,0,1.2,0.6,1.2,1.19c0,75.019,0,75.019,0,75.019C96.15,180.1,95.55,180.699,94.95,180.699z"/>
			</g>
			<g>
				<path class="st2" d="M88.95,180.699c-0.6,0-1.2-0.6-1.2-1.191c0-75.019,0-75.019,0-75.019c0-0.59,0.6-1.19,1.2-1.19
					c0.6,0,1.2,0.6,1.2,1.19c0,75.019,0,75.019,0,75.019C90.15,180.1,89.55,180.699,88.95,180.699z"/>
			</g>
			<g>
				<path class="st2" d="M82.95,180.699c-0.6,0-1.2-0.6-1.2-1.191c0-75.019,0-75.019,0-75.019c0-0.59,0.6-1.19,1.2-1.19
					c0.6,0,1.2,0.6,1.2,1.19c0,75.019,0,75.019,0,75.019C84.15,180.1,83.55,180.699,82.95,180.699z"/>
			</g>
			<g>
				<path class="st2" d="M76.95,180.699c-0.6,0-1.2-0.6-1.2-1.191c0-75.019,0-75.019,0-75.019c0-0.59,0.6-1.19,1.2-1.19
					c0.6,0,1.2,0.6,1.2,1.19c0,75.019,0,75.019,0,75.019C78.15,180.1,77.55,180.699,76.95,180.699z"/>
			</g>
			<g>
				<path class="st2" d="M70.95,180.699c-0.6,0-1.2-0.6-1.2-1.191c0-75.019,0-75.019,0-75.019c0-0.59,0.6-1.19,1.2-1.19
					c0.6,0,1.2,0.6,1.2,1.19c0,75.019,0,75.019,0,75.019C72.15,180.1,71.55,180.699,70.95,180.699z"/>
			</g>
			<g>
				<path class="st2" d="M64.95,180.699c-0.6,0-1.2-0.6-1.2-1.191c0-75.019,0-75.019,0-75.019c0-0.59,0.6-1.19,1.2-1.19
					c0.6,0,1.2,0.6,1.2,1.19c0,75.019,0,75.019,0,75.019C66.15,180.1,65.55,180.699,64.95,180.699z"/>
			</g>
			<g>
				<path class="st2" d="M58.95,180.699c-0.6,0-1.2-0.6-1.2-1.191c0-75.019,0-75.019,0-75.019c0-0.59,0.6-1.19,1.2-1.19
					c0.6,0,1.2,0.6,1.2,1.19c0,75.019,0,75.019,0,75.019C60.15,180.1,59.55,180.699,58.95,180.699z"/>
			</g>
			<g>
				<path class="st2" d="M52.95,180.699c-0.6,0-1.2-0.6-1.2-1.191c0-75.019,0-75.019,0-75.019c0-0.59,0.6-1.19,1.2-1.19
					c0.6,0,1.2,0.6,1.2,1.19c0,75.019,0,75.019,0,75.019C54.15,180.1,53.55,180.699,52.95,180.699z"/>
			</g>
		</g>
		<rect x="47.75" y="110.019" class="st1" width="64.32" height="63.6"/>
		<rect x="47.75" y="110.019" class="st8" width="64.32" height="63.6"/>
		<g>
			<path class="st5" d="M71.859,143.64c-0.105,1.515-0.704,2.719-1.795,3.612c-1.092,0.894-2.516,1.34-4.272,1.34
				c-2.022,0-3.595-0.615-4.717-1.847s-1.684-2.958-1.684-5.179c0-2.27,0.572-4.008,1.716-5.216c1.144-1.207,2.79-1.811,4.936-1.811
				c1.744,0,3.122,0.415,4.133,1.245c1.011,0.83,1.566,2.003,1.665,3.518h-2.774c-0.118-0.755-0.433-1.33-0.946-1.725
				c-0.513-0.395-1.206-0.593-2.078-0.593c-1.237,0-2.177,0.39-2.82,1.168c-0.644,0.778-0.965,1.917-0.965,3.414
				c0,1.448,0.32,2.568,0.96,3.358c0.64,0.791,1.551,1.187,2.732,1.187c0.854,0,1.552-0.213,2.097-0.639s0.897-1.036,1.058-1.833
				H71.859z"/>
			<path class="st5" d="M76.915,143.477v4.744h-2.811v-13.337h6.077c1.435,0,2.522,0.364,3.261,1.091
				c0.739,0.728,1.108,1.794,1.108,3.201c0,1.376-0.362,2.437-1.085,3.183c-0.724,0.745-1.756,1.118-3.099,1.118H76.915z
				 M76.934,141.059h2.718c0.736,0,1.271-0.152,1.605-0.457s0.501-0.795,0.501-1.472c0-0.634-0.164-1.114-0.492-1.439
				c-0.328-0.326-0.816-0.489-1.466-0.489h-2.867V141.059z"/>
			<path class="st5" d="M86.693,134.848h2.839v8.366c0,1.032,0.21,1.785,0.631,2.259c0.42,0.475,1.088,0.711,2.004,0.711
				c0.928,0,1.604-0.235,2.027-0.706c0.423-0.471,0.635-1.226,0.635-2.264v-8.366h2.811v8.665c0,1.636-0.468,2.892-1.405,3.767
				s-2.287,1.313-4.05,1.313c-1.775,0-3.134-0.436-4.077-1.308c-0.943-0.873-1.415-2.13-1.415-3.771V134.848z"/>
		</g>
	</g>
</g>
<rect x="662" y="127" class="st7" width="186" height="31"/>
<rect x="662" y="60" class="st4" width="92" height="65"/>
<rect x="756" y="60" class="st7" width="92" height="65"/>
<g>
	<rect x="678.636" y="37.018" class="st0" width="152.724" height="20.883"/>
	<path d="M682.881,52.836V37.013h5.822c0.945,0,1.665,0.047,2.159,0.14c0.494,0.093,0.935,0.247,1.321,0.462
		c0.645,0.351,1.139,0.87,1.482,1.558s0.516,1.493,0.516,2.417c0,0.881-0.172,1.658-0.516,2.331
		c-0.344,0.673-0.845,1.21-1.504,1.611c-0.38,0.229-0.825,0.392-1.338,0.489c-0.512,0.097-1.354,0.145-2.529,0.145h-3.266v6.671
		H682.881z M685.029,44.253h3.609c1.253,0,2.129-0.2,2.627-0.602c0.497-0.401,0.746-1.088,0.746-2.063
		c0-0.938-0.247-1.611-0.741-2.02s-1.317-0.612-2.471-0.612h-3.771V44.253z"/>
	<path d="M707.803,46.96h2.084c-0.093,1.927-0.75,3.461-1.971,4.603c-1.222,1.143-2.799,1.713-4.732,1.713
		c-2.228,0-3.973-0.759-5.236-2.277c-1.265-1.518-1.896-3.62-1.896-6.306c0-2.478,0.662-4.445,1.987-5.903
		c1.325-1.457,3.111-2.186,5.36-2.186c1.79,0,3.257,0.462,4.398,1.386c1.143,0.924,1.804,2.185,1.982,3.781h-2.105
		c-0.2-1.045-0.677-1.849-1.429-2.412c-0.752-0.562-1.729-0.843-2.933-0.843c-1.604,0-2.849,0.563-3.732,1.687
		c-0.885,1.125-1.327,2.711-1.327,4.759c0,1.934,0.46,3.484,1.38,4.651c0.921,1.167,2.14,1.751,3.658,1.751
		c1.296,0,2.357-0.403,3.186-1.208C707.303,49.35,707.745,48.285,707.803,46.96z"/>
	<path d="M712.637,52.836v-2.374h2.202v2.567c0,0.809-0.191,1.479-0.575,2.009c-0.383,0.53-0.925,0.881-1.627,1.053v-1.096
		c0.344-0.072,0.61-0.267,0.801-0.585c0.189-0.319,0.284-0.732,0.284-1.241v-0.333H712.637z"/>
	<path d="M724.475,52.836V37.013h2.17v13.825h7.885v1.998H724.475z"/>
	<path d="M736.022,39.215v-2.202h1.934v2.202H736.022z M736.022,52.836V41.331h1.934v11.505H736.022z"/>
	<path d="M748.569,52.836v-7.079c0-1.131-0.174-1.914-0.521-2.347c-0.347-0.433-0.943-0.65-1.788-0.65
		c-1.081,0-1.921,0.306-2.519,0.918c-0.599,0.612-0.897,1.481-0.897,2.605v6.553h-1.934V41.331h1.848v1.676
		c0.444-0.666,0.971-1.16,1.579-1.482s1.314-0.483,2.116-0.483c0.866,0,1.597,0.131,2.191,0.392
		c0.595,0.262,1.053,0.654,1.375,1.176c0.179,0.279,0.308,0.607,0.387,0.983s0.118,0.972,0.118,1.789v0.548v6.907H748.569z"/>
	<path d="M755.337,41.331v7.058c0,1.132,0.177,1.917,0.532,2.358c0.354,0.44,0.954,0.661,1.799,0.661
		c1.117,0,1.962-0.328,2.535-0.983s0.859-1.62,0.859-2.895v-6.198h1.934v11.505h-1.848v-1.719c-0.401,0.666-0.92,1.167-1.558,1.504
		s-1.386,0.505-2.245,0.505c-0.802,0-1.5-0.136-2.095-0.408s-1.049-0.659-1.364-1.16c-0.179-0.279-0.308-0.607-0.387-0.983
		s-0.118-0.972-0.118-1.789v-0.548v-6.907H755.337z"/>
	<path d="M764.468,52.836l4.007-5.919l-3.813-5.586h2.267l2.825,4.136l2.771-4.136h2.234l-3.867,5.564l4.114,5.94h-2.331
		l-3.019-4.447l-2.922,4.447H764.468z"/>
	<path d="M776.918,52.836v-2.374h2.202v2.567c0,0.809-0.191,1.479-0.575,2.009c-0.383,0.53-0.925,0.881-1.627,1.053v-1.096
		c0.344-0.072,0.61-0.267,0.801-0.585c0.189-0.319,0.284-0.732,0.284-1.241v-0.333H776.918z"/>
	<path d="M790.732,39.354v13.481h-1.977V37.013h3.072l3.921,12.106c0.114,0.344,0.198,0.611,0.253,0.8
		c0.053,0.19,0.095,0.356,0.123,0.5c0.058-0.265,0.114-0.501,0.172-0.709c0.058-0.208,0.118-0.404,0.183-0.591l4.061-12.106h3.083
		v15.823h-2.084V39.354c-0.05,0.229-0.107,0.46-0.172,0.693c-0.064,0.233-0.133,0.464-0.204,0.693l-4.071,12.096h-2.03
		l-3.975-12.096c-0.071-0.2-0.136-0.415-0.193-0.645C790.836,39.867,790.782,39.62,790.732,39.354z"/>
	<path d="M813.903,51.3c-0.602,0.63-1.241,1.103-1.917,1.418c-0.678,0.315-1.396,0.473-2.154,0.473c-1.175,0-2.091-0.306-2.75-0.918
		s-0.988-1.459-0.988-2.541c0-1.045,0.324-1.865,0.973-2.46c0.647-0.594,1.634-0.978,2.959-1.149
		c0.337-0.036,0.791-0.086,1.364-0.15c0.981-0.1,1.583-0.197,1.805-0.29c0.222-0.086,0.369-0.199,0.44-0.338
		s0.107-0.442,0.107-0.908c0-0.587-0.215-1.027-0.645-1.321c-0.43-0.293-1.078-0.44-1.944-0.44c-0.896,0-1.57,0.179-2.024,0.537
		c-0.455,0.358-0.683,0.888-0.683,1.59h-1.826v-0.086c0-1.16,0.408-2.077,1.225-2.75c0.816-0.673,1.94-1.01,3.373-1.01
		c1.54,0,2.673,0.289,3.399,0.865c0.728,0.577,1.091,1.477,1.091,2.702v5.758c0,0.494,0.054,0.813,0.161,0.956
		c0.107,0.144,0.301,0.215,0.58,0.215c0.058,0,0.127-0.005,0.209-0.016c0.083-0.011,0.182-0.027,0.296-0.048v1.493
		c-0.236,0.064-0.442,0.109-0.618,0.134c-0.175,0.025-0.342,0.038-0.499,0.038c-0.645,0-1.128-0.14-1.45-0.419
		s-0.483-0.702-0.483-1.268V51.3z M813.721,46.981c-0.516,0.279-1.4,0.498-2.653,0.655c-0.444,0.058-0.777,0.104-0.999,0.14
		c-0.702,0.115-1.207,0.322-1.515,0.623s-0.462,0.738-0.462,1.311c0,0.573,0.179,1.014,0.537,1.321
		c0.358,0.308,0.87,0.462,1.536,0.462c1.038,0,1.891-0.261,2.557-0.784c0.666-0.522,0.999-1.192,0.999-2.009V46.981z"/>
	<path d="M826.375,45.155c-0.058-0.788-0.342-1.395-0.854-1.821c-0.513-0.426-1.213-0.639-2.101-0.639
		c-1.046,0-1.853,0.376-2.423,1.128c-0.568,0.752-0.854,1.826-0.854,3.223c0,1.404,0.273,2.485,0.822,3.244
		c0.547,0.759,1.322,1.139,2.325,1.139c0.902,0,1.624-0.232,2.165-0.698c0.54-0.465,0.875-1.142,1.004-2.03h1.848
		c-0.101,1.411-0.598,2.512-1.493,3.303c-0.896,0.792-2.099,1.187-3.609,1.187c-1.575,0-2.813-0.541-3.712-1.622
		c-0.898-1.081-1.348-2.563-1.348-4.447c0-1.926,0.469-3.436,1.407-4.528c0.938-1.092,2.228-1.638,3.867-1.638
		c1.446,0,2.604,0.378,3.476,1.133c0.869,0.756,1.333,1.778,1.391,3.067H826.375z"/>
</g>
<g>
	<rect x="673.781" y="84.891" class="st0" width="68.437" height="20.883"/>
	<path class="st5" d="M687.575,98.551V86.546h-4.313v-1.661h10.493v1.661h-4.314v12.005H687.575z"/>
	<path class="st5" d="M699.646,95.341h1.651c-0.18,1.095-0.655,1.958-1.429,2.588s-1.747,0.946-2.923,0.946
		c-1.379,0-2.467-0.464-3.266-1.392c-0.797-0.928-1.196-2.192-1.196-3.794c0-1.694,0.396-3.018,1.188-3.971
		c0.792-0.952,1.884-1.429,3.274-1.429c1.43,0,2.534,0.439,3.317,1.317c0.782,0.878,1.173,2.119,1.173,3.72
		c0,0.204-0.001,0.356-0.004,0.455c-0.004,0.099-0.011,0.195-0.023,0.288h-7.172c0.02,1.045,0.279,1.854,0.779,2.426
		c0.502,0.572,1.197,0.858,2.088,0.858c0.681,0,1.241-0.175,1.684-0.524C699.229,96.481,699.516,95.985,699.646,95.341z
		 M694.228,92.679h5.455c-0.006-0.928-0.241-1.644-0.705-2.148c-0.464-0.504-1.122-0.756-1.976-0.756
		c-0.823,0-1.471,0.248-1.944,0.742C694.585,91.012,694.308,91.732,694.228,92.679z"/>
	<path class="st5" d="M703.365,98.551V84.886h1.698v13.666H703.365z"/>
	<path class="st5" d="M714.257,98.551v-6.114c0-0.977-0.15-1.653-0.45-2.027c-0.3-0.375-0.814-0.562-1.545-0.562
		c-0.934,0-1.659,0.265-2.175,0.793c-0.517,0.529-0.774,1.279-0.774,2.25v5.659h-1.67v-9.936h1.596v1.447
		c0.383-0.575,0.838-1.002,1.363-1.28s1.135-0.417,1.828-0.417c0.748,0,1.379,0.113,1.893,0.339
		c0.513,0.226,0.908,0.564,1.188,1.016c0.154,0.241,0.266,0.524,0.334,0.849c0.067,0.325,0.102,0.84,0.102,1.545v0.473v5.965
		H714.257z"/>
	<path class="st5" d="M725.14,95.341h1.651c-0.18,1.095-0.655,1.958-1.429,2.588s-1.747,0.946-2.923,0.946
		c-1.379,0-2.467-0.464-3.266-1.392c-0.797-0.928-1.196-2.192-1.196-3.794c0-1.694,0.396-3.018,1.188-3.971
		c0.792-0.952,1.884-1.429,3.274-1.429c1.43,0,2.534,0.439,3.317,1.317c0.782,0.878,1.173,2.119,1.173,3.72
		c0,0.204-0.001,0.356-0.004,0.455c-0.004,0.099-0.011,0.195-0.023,0.288h-7.172c0.02,1.045,0.279,1.854,0.779,2.426
		c0.502,0.572,1.197,0.858,2.088,0.858c0.681,0,1.241-0.175,1.684-0.524C724.724,96.481,725.01,95.985,725.14,95.341z
		 M719.722,92.679h5.455c-0.006-0.928-0.241-1.644-0.705-2.148c-0.464-0.504-1.122-0.756-1.976-0.756
		c-0.823,0-1.471,0.248-1.944,0.742C720.079,91.012,719.802,91.732,719.722,92.679z"/>
	<path class="st5" d="M730.799,96.046c0,0.445,0.063,0.742,0.19,0.891c0.126,0.148,0.36,0.223,0.7,0.223
		c0.099,0,0.218-0.003,0.357-0.009c0.139-0.006,0.32-0.019,0.543-0.037v1.419c-0.279,0.049-0.528,0.086-0.747,0.111
		c-0.22,0.024-0.416,0.037-0.589,0.037c-0.786,0-1.336-0.151-1.652-0.455c-0.314-0.303-0.473-0.841-0.473-1.614v-6.67h-1.484v-1.327
		h1.484v-2.774h1.67v2.774h1.791v1.327h-1.791V96.046z"/>
</g>
<g>
	<rect x="756.707" y="84.891" class="st0" width="87.379" height="20.883"/>
	<path class="st5" d="M759.242,98.552V84.887h5.204c1.905,0,3.363,0.569,4.375,1.707c1.011,1.138,1.517,2.78,1.517,4.926
		c0,2.221-0.524,3.947-1.572,5.182c-1.049,1.233-2.513,1.851-4.394,1.851H759.242z M764.289,86.464h-3.191v10.418h3.191
		c1.367,0,2.399-0.444,3.099-1.331c0.699-0.888,1.049-2.2,1.049-3.938c0-1.664-0.356-2.938-1.067-3.822
		C766.658,86.906,765.631,86.464,764.289,86.464z"/>
	<path class="st5" d="M779.17,95.342h1.651c-0.18,1.095-0.655,1.958-1.429,2.588s-1.747,0.946-2.923,0.946
		c-1.379,0-2.467-0.464-3.266-1.392c-0.797-0.928-1.196-2.192-1.196-3.794c0-1.694,0.396-3.018,1.188-3.971
		c0.792-0.952,1.884-1.429,3.274-1.429c1.43,0,2.534,0.439,3.317,1.317c0.782,0.878,1.173,2.119,1.173,3.72
		c0,0.204-0.001,0.356-0.004,0.455c-0.004,0.099-0.011,0.195-0.023,0.288h-7.172c0.02,1.045,0.279,1.854,0.779,2.426
		c0.502,0.572,1.197,0.858,2.088,0.858c0.681,0,1.241-0.175,1.684-0.524C778.754,96.482,779.04,95.986,779.17,95.342z
		 M773.752,92.68h5.455c-0.006-0.928-0.241-1.644-0.705-2.148c-0.464-0.504-1.122-0.756-1.976-0.756
		c-0.823,0-1.471,0.248-1.944,0.742C774.109,91.013,773.832,91.733,773.752,92.68z"/>
	<path class="st5" d="M782.909,98.552V84.887h1.633v5.112c0.383-0.563,0.845-0.988,1.387-1.275c0.541-0.288,1.151-0.432,1.832-0.432
		c1.317,0,2.375,0.482,3.173,1.447s1.196,2.258,1.196,3.878c0,1.596-0.394,2.868-1.183,3.817c-0.788,0.95-1.845,1.424-3.168,1.424
		c-0.699,0-1.31-0.127-1.832-0.38c-0.523-0.253-0.991-0.646-1.405-1.178v1.252H782.909z M784.485,93.515
		c0,1.237,0.254,2.189,0.762,2.857c0.507,0.668,1.23,1.002,2.17,1.002c0.916,0,1.638-0.325,2.167-0.974
		c0.528-0.649,0.793-1.54,0.793-2.672c0-1.255-0.255-2.225-0.766-2.908c-0.51-0.684-1.235-1.025-2.175-1.025
		c-0.984,0-1.722,0.311-2.213,0.933C784.731,91.348,784.485,92.278,784.485,93.515z"/>
	<path class="st5" d="M795.813,88.616v6.095c0,0.978,0.153,1.656,0.46,2.036c0.306,0.381,0.824,0.571,1.554,0.571
		c0.965,0,1.694-0.283,2.189-0.849c0.495-0.565,0.742-1.399,0.742-2.5v-5.353h1.67v9.936h-1.596v-1.484
		c-0.347,0.575-0.795,1.008-1.346,1.299c-0.55,0.291-1.196,0.436-1.938,0.436c-0.692,0-1.296-0.118-1.81-0.353
		c-0.513-0.235-0.905-0.569-1.178-1.002c-0.154-0.241-0.266-0.524-0.334-0.849c-0.068-0.324-0.102-0.839-0.102-1.544v-0.473v-5.965
		H795.813z"/>
	<path class="st5" d="M812.113,97.337c-0.389,0.514-0.846,0.898-1.368,1.155c-0.522,0.257-1.118,0.385-1.786,0.385
		c-1.342,0-2.421-0.487-3.237-1.461c-0.816-0.974-1.225-2.262-1.225-3.864c0-1.583,0.409-2.856,1.229-3.818
		c0.819-0.961,1.903-1.442,3.252-1.442c0.655,0,1.231,0.125,1.729,0.376c0.498,0.25,0.96,0.651,1.388,1.201v-1.252h1.633v9.723
		c0,1.534-0.365,2.643-1.096,3.326c-0.729,0.684-1.907,1.025-3.534,1.025c-1.317,0-2.347-0.257-3.089-0.77
		c-0.742-0.514-1.113-1.225-1.113-2.134v-0.074h1.633v0.037c0,0.513,0.218,0.898,0.653,1.155c0.437,0.257,1.094,0.385,1.972,0.385
		c1.052,0,1.808-0.201,2.269-0.603c0.46-0.402,0.69-1.064,0.69-1.985V97.337z M809.173,89.794c-0.94,0-1.664,0.328-2.171,0.983
		c-0.507,0.656-0.761,1.593-0.761,2.811c0,1.194,0.26,2.123,0.779,2.788c0.52,0.665,1.243,0.998,2.171,0.998
		c1.015,0,1.764-0.305,2.25-0.914c0.485-0.609,0.729-1.545,0.729-2.807c0-1.274-0.253-2.236-0.757-2.885
		S810.162,89.794,809.173,89.794z"/>
	<path class="st5" d="M823.422,97.337c-0.389,0.514-0.846,0.898-1.368,1.155c-0.522,0.257-1.118,0.385-1.786,0.385
		c-1.342,0-2.421-0.487-3.237-1.461c-0.816-0.974-1.225-2.262-1.225-3.864c0-1.583,0.409-2.856,1.229-3.818
		c0.819-0.961,1.903-1.442,3.252-1.442c0.655,0,1.231,0.125,1.729,0.376c0.498,0.25,0.96,0.651,1.388,1.201v-1.252h1.633v9.723
		c0,1.534-0.365,2.643-1.096,3.326c-0.729,0.684-1.907,1.025-3.534,1.025c-1.317,0-2.347-0.257-3.089-0.77
		c-0.742-0.514-1.113-1.225-1.113-2.134v-0.074h1.633v0.037c0,0.513,0.218,0.898,0.653,1.155c0.437,0.257,1.094,0.385,1.972,0.385
		c1.052,0,1.808-0.201,2.269-0.603c0.46-0.402,0.69-1.064,0.69-1.985V97.337z M820.481,89.794c-0.94,0-1.664,0.328-2.171,0.983
		c-0.507,0.656-0.761,1.593-0.761,2.811c0,1.194,0.26,2.123,0.779,2.788c0.52,0.665,1.243,0.998,2.171,0.998
		c1.015,0,1.764-0.305,2.25-0.914c0.485-0.609,0.729-1.545,0.729-2.807c0-1.274-0.253-2.236-0.757-2.885
		S821.471,89.794,820.481,89.794z"/>
	<path class="st5" d="M834.276,95.342h1.651c-0.18,1.095-0.655,1.958-1.429,2.588s-1.747,0.946-2.923,0.946
		c-1.379,0-2.467-0.464-3.266-1.392c-0.797-0.928-1.196-2.192-1.196-3.794c0-1.694,0.396-3.018,1.188-3.971
		c0.792-0.952,1.884-1.429,3.274-1.429c1.43,0,2.534,0.439,3.317,1.317c0.782,0.878,1.173,2.119,1.173,3.72
		c0,0.204-0.001,0.356-0.004,0.455c-0.004,0.099-0.011,0.195-0.023,0.288h-7.172c0.02,1.045,0.279,1.854,0.779,2.426
		c0.502,0.572,1.197,0.858,2.088,0.858c0.681,0,1.241-0.175,1.684-0.524C833.86,96.482,834.146,95.986,834.276,95.342z
		 M828.858,92.68h5.455c-0.006-0.928-0.241-1.644-0.705-2.148c-0.464-0.504-1.122-0.756-1.976-0.756
		c-0.823,0-1.471,0.248-1.944,0.742C829.216,91.013,828.938,91.733,828.858,92.68z"/>
	<path class="st5" d="M837.979,98.552v-9.936h1.613v1.781c0.267-0.668,0.627-1.167,1.081-1.499c0.455-0.331,1.013-0.496,1.675-0.496
		c0.124,0,0.213,0.001,0.27,0.005c0.055,0.003,0.111,0.011,0.166,0.023v1.763c-0.043-0.006-0.092-0.011-0.148-0.014
		c-0.055-0.003-0.139-0.004-0.25-0.004c-0.891,0-1.569,0.243-2.036,0.728c-0.468,0.486-0.7,1.192-0.7,2.12v5.529H837.979z"/>
</g>
<g>
	<rect x="673.781" y="136.059" class="st0" width="165.771" height="20.882"/>
	<path class="st5" d="M691.896,145.295h1.781c-0.006,0.068-0.011,0.141-0.014,0.218s-0.004,0.193-0.004,0.348
		c0,0.903,0.17,1.558,0.51,1.962c0.34,0.405,0.888,0.608,1.643,0.608c0.47,0,0.859-0.084,1.168-0.251
		c0.31-0.167,0.554-0.427,0.733-0.779c0.08-0.167,0.138-0.4,0.172-0.7c0.033-0.3,0.051-0.806,0.051-1.517v-9.129h1.864v9.88
		c0,1.41-0.321,2.454-0.965,3.131c-0.643,0.678-1.639,1.017-2.986,1.017c-1.324,0-2.316-0.35-2.979-1.049
		c-0.662-0.698-0.992-1.75-0.992-3.154c0-0.154,0.001-0.273,0.004-0.357C691.886,145.438,691.891,145.363,691.896,145.295z"/>
	<path class="st5" d="M701.796,145.443v-1.503h4.592v1.503H701.796z"/>
	<path class="st5" d="M708.522,149.72v-13.666h1.874v11.94h6.81v1.726H708.522z"/>
	<path class="st5" d="M718.496,137.956v-1.902h1.67v1.902H718.496z M718.496,149.72v-9.936h1.67v9.936H718.496z"/>
	<path class="st5" d="M729.331,149.72v-6.113c0-0.978-0.15-1.653-0.45-2.027c-0.3-0.375-0.814-0.562-1.545-0.562
		c-0.934,0-1.659,0.265-2.175,0.793c-0.517,0.529-0.774,1.279-0.774,2.25v5.659h-1.67v-9.936h1.596v1.447
		c0.383-0.575,0.838-1.002,1.363-1.28s1.135-0.417,1.828-0.417c0.748,0,1.379,0.113,1.893,0.339
		c0.513,0.226,0.908,0.564,1.188,1.016c0.154,0.241,0.266,0.524,0.334,0.849c0.067,0.325,0.102,0.84,0.102,1.545v0.474v5.965
		H729.331z"/>
	<path class="st5" d="M733.525,149.72v-13.666h1.67v8.192l4.49-4.462h2.105l-3.721,3.627l3.665,6.309h-1.884l-2.903-5.148
		l-1.753,1.688v3.46H733.525z"/>
	<path class="st5" d="M748.118,145.221h1.79c0.02,0.989,0.349,1.778,0.988,2.365c0.641,0.588,1.495,0.882,2.565,0.882
		c1.058,0,1.891-0.223,2.5-0.668s0.914-1.052,0.914-1.818c0-1.045-1.145-1.84-3.433-2.385c-0.136-0.03-0.241-0.056-0.315-0.074
		c-1.855-0.438-3.082-0.929-3.679-1.471c-0.597-0.541-0.895-1.309-0.895-2.305c0-1.218,0.445-2.197,1.336-2.936
		c0.891-0.739,2.074-1.109,3.553-1.109c1.509,0,2.696,0.388,3.563,1.165c0.866,0.776,1.305,1.841,1.317,3.196l-1.772,0.009
		c-0.062-0.915-0.372-1.617-0.932-2.106c-0.561-0.488-1.325-0.733-2.297-0.733c-0.908,0-1.636,0.199-2.18,0.599
		c-0.544,0.398-0.816,0.929-0.816,1.591c0,1.058,1.126,1.846,3.377,2.366c0.334,0.081,0.591,0.143,0.77,0.186
		c0.037,0.006,0.103,0.022,0.195,0.046c1.472,0.353,2.449,0.733,2.932,1.142c0.365,0.31,0.644,0.685,0.835,1.127
		s0.288,0.936,0.288,1.479c0,1.317-0.473,2.366-1.415,3.146c-0.943,0.779-2.219,1.169-3.827,1.169c-1.657,0-2.949-0.419-3.873-1.258
		C748.683,147.986,748.187,146.785,748.118,145.221z"/>
	<path class="st5" d="M760.317,144.738c0-1.664,0.416-2.96,1.248-3.888c0.831-0.928,1.999-1.392,3.502-1.392
		c1.509,0,2.681,0.462,3.517,1.387c0.834,0.925,1.252,2.223,1.252,3.893s-0.416,2.969-1.248,3.896s-1.999,1.392-3.502,1.392
		c-1.509,0-2.682-0.463-3.516-1.388C760.734,147.715,760.317,146.414,760.317,144.738z M762.024,144.738
		c0,1.23,0.265,2.172,0.793,2.824c0.529,0.653,1.285,0.979,2.269,0.979c0.978,0,1.726-0.326,2.245-0.979
		c0.52-0.652,0.779-1.594,0.779-2.824c0-1.225-0.26-2.164-0.779-2.816c-0.52-0.652-1.268-0.979-2.245-0.979
		c-0.989,0-1.747,0.325-2.273,0.974C762.287,142.567,762.024,143.508,762.024,144.738z"/>
	<path class="st5" d="M772.229,149.72v-8.609h-1.633v-1.327h1.633v-1.466c0-0.822,0.187-1.439,0.562-1.851
		c0.374-0.411,0.936-0.617,1.684-0.617c0.117,0,0.266,0.009,0.445,0.028s0.442,0.053,0.788,0.102v1.503
		c-0.179-0.031-0.329-0.054-0.449-0.07c-0.121-0.015-0.219-0.023-0.293-0.023c-0.389,0-0.661,0.108-0.816,0.325
		c-0.154,0.217-0.231,0.628-0.231,1.234v0.835h1.79v1.327h-1.79v8.609H772.229z"/>
	<path class="st5" d="M778.844,147.215c0,0.445,0.063,0.742,0.19,0.891c0.126,0.148,0.36,0.223,0.7,0.223
		c0.099,0,0.218-0.003,0.357-0.009c0.139-0.006,0.32-0.019,0.543-0.037v1.419c-0.279,0.05-0.528,0.087-0.747,0.111
		c-0.22,0.024-0.416,0.037-0.589,0.037c-0.786,0-1.336-0.151-1.652-0.454c-0.314-0.303-0.473-0.841-0.473-1.614v-6.671h-1.484
		v-1.327h1.484v-2.774h1.67v2.774h1.791v1.327h-1.791V147.215z"/>
	<path class="st5" d="M784.048,149.72l-2.969-9.936h1.735l2.105,7.598l1.957-7.598h1.939l1.939,7.598l2.18-7.598h1.717l-3.025,9.936
		h-1.688l-2.098-7.654l-2.105,7.654H784.048z"/>
	<path class="st5" d="M802.193,148.394c-0.52,0.544-1.071,0.952-1.655,1.225c-0.585,0.271-1.205,0.408-1.86,0.408
		c-1.015,0-1.806-0.265-2.375-0.794c-0.569-0.528-0.854-1.26-0.854-2.193c0-0.903,0.279-1.611,0.84-2.125
		c0.56-0.513,1.411-0.844,2.556-0.992c0.291-0.031,0.684-0.074,1.179-0.13c0.847-0.087,1.366-0.17,1.559-0.251
		c0.191-0.074,0.318-0.172,0.38-0.292c0.062-0.121,0.093-0.382,0.093-0.784c0-0.507-0.186-0.887-0.557-1.141
		c-0.371-0.253-0.931-0.38-1.68-0.38c-0.772,0-1.355,0.155-1.748,0.464c-0.394,0.31-0.59,0.767-0.59,1.373h-1.576v-0.074
		c0-1.002,0.352-1.793,1.057-2.375c0.705-0.581,1.677-0.872,2.914-0.872c1.329,0,2.308,0.249,2.936,0.747
		c0.628,0.498,0.941,1.275,0.941,2.333v4.973c0,0.427,0.047,0.702,0.14,0.826s0.26,0.186,0.501,0.186
		c0.05,0,0.109-0.005,0.181-0.015c0.071-0.009,0.156-0.022,0.255-0.041v1.289c-0.203,0.056-0.382,0.095-0.533,0.116
		s-0.295,0.032-0.432,0.032c-0.557,0-0.974-0.12-1.252-0.361s-0.418-0.606-0.418-1.095V148.394z M802.036,144.664
		c-0.445,0.241-1.209,0.43-2.292,0.565c-0.383,0.05-0.671,0.09-0.862,0.121c-0.606,0.099-1.042,0.278-1.308,0.538
		c-0.267,0.26-0.399,0.637-0.399,1.132s0.154,0.875,0.464,1.141c0.31,0.267,0.752,0.399,1.326,0.399
		c0.897,0,1.633-0.226,2.209-0.678c0.574-0.451,0.862-1.029,0.862-1.734V144.664z"/>
	<path class="st5" d="M806.369,149.72v-9.936h1.613v1.781c0.267-0.668,0.627-1.167,1.081-1.499c0.455-0.331,1.013-0.496,1.675-0.496
		c0.124,0,0.213,0.001,0.27,0.005c0.055,0.003,0.111,0.011,0.166,0.023v1.763c-0.043-0.006-0.092-0.011-0.148-0.014
		c-0.055-0.003-0.139-0.004-0.25-0.004c-0.891,0-1.569,0.243-2.036,0.728c-0.468,0.486-0.7,1.192-0.7,2.12v5.529H806.369z"/>
	<path class="st5" d="M819.366,146.51h1.651c-0.18,1.095-0.655,1.958-1.429,2.589s-1.747,0.946-2.923,0.946
		c-1.379,0-2.467-0.464-3.266-1.392c-0.797-0.928-1.196-2.192-1.196-3.795c0-1.694,0.396-3.018,1.188-3.971
		c0.792-0.952,1.884-1.429,3.274-1.429c1.43,0,2.534,0.439,3.317,1.317c0.782,0.878,1.173,2.119,1.173,3.721
		c0,0.204-0.001,0.355-0.004,0.454c-0.004,0.1-0.011,0.195-0.023,0.288h-7.172c0.02,1.045,0.279,1.854,0.779,2.426
		c0.502,0.572,1.197,0.858,2.088,0.858c0.681,0,1.241-0.175,1.684-0.524S819.236,147.153,819.366,146.51z M813.948,143.848h5.455
		c-0.006-0.928-0.241-1.644-0.705-2.148c-0.464-0.504-1.122-0.756-1.976-0.756c-0.823,0-1.471,0.248-1.944,0.742
		C814.306,142.181,814.028,142.901,813.948,143.848z"/>
</g>
<polygon class="st3" points="149.5,131.5 149.5,115.686 122.199,143.002 149.5,170.313 149.5,153.5 628.5,153.5 628.5,170.313 
	655.799,143.002 628.5,115.686 628.5,131.5 "/>
<g>
	<path class="st4" d="M313.516,185.305c-3.051,0-5.666-2.356-5.666-5.121c0-75.968,0-75.968,0-75.968
		c0-2.766,2.615-5.121,5.666-5.121c159.512,0,159.512,0,159.512,0c3.043,0,5.663,2.355,5.663,5.121c0,75.968,0,75.968,0,75.968
		c0,2.765-2.619,5.121-5.663,5.121H313.516z"/>
	<path class="st10" d="M313.516,185.305c-3.051,0-5.666-2.356-5.666-5.121c0-75.968,0-75.968,0-75.968
		c0-2.766,2.615-5.121,5.666-5.121c159.512,0,159.512,0,159.512,0c3.043,0,5.663,2.355,5.663,5.121c0,75.968,0,75.968,0,75.968
		c0,2.765-2.619,5.121-5.663,5.121H313.516z"/>
	<g>
		<rect x="335.474" y="126.47" class="st6" width="115.591" height="31.459"/>
		<path class="st5" d="M348.323,129.584c0-2.071,0.947-3.106,2.843-3.106c1.883,0,2.825,1.042,2.825,3.125v17.342
			c0,1.235-0.051,2.367-0.149,3.396c-0.15,1.002-0.549,1.936-1.197,2.797c-1.447,1.928-3.909,2.904-7.388,2.931
			c-5.873-0.077-8.847-2.669-8.921-7.777c0.049-2.688,0.972-4.046,2.768-4.071c1.097,0,1.845,0.443,2.244,1.332
			c0.262,0.527,0.393,1.056,0.393,1.583c0.024,0.554,0.063,1.081,0.112,1.583c0.249,1.635,1.358,2.453,3.329,2.453
			c1.284,0,2.138-0.367,2.562-1.102c0.412-0.721,0.605-1.854,0.58-3.397V129.584z"/>
		<path class="st5" d="M366.178,142.125c1.842,0,2.763,0.88,2.763,2.641s-0.921,2.641-2.763,2.641h-4.965
			c-1.842,0-2.763-0.88-2.763-2.641s0.921-2.641,2.763-2.641H366.178z"/>
		<path class="st5" d="M376.765,155.278c-1.359,0-2.27-0.354-2.731-1.062c-0.512-0.719-0.749-1.852-0.71-3.395v-21.219
			c0.024-2.058,0.966-3.099,2.824-3.125c1.895,0,2.843,1.042,2.843,3.125v20.468h10.425c2.245,0.025,3.381,0.867,3.406,2.525
			c0,1.813-1.136,2.706-3.406,2.681H376.765z"/>
		<path class="st5" d="M395.757,129.438c0-0.846,0.293-1.557,0.88-2.133c0.536-0.525,1.204-0.801,2.002-0.827
			c0.811,0.026,1.497,0.301,2.059,0.827c0.512,0.577,0.779,1.288,0.805,2.133c-0.025,0.833-0.293,1.512-0.805,2.038
			c-0.562,0.602-1.248,0.903-2.059,0.903c-0.773,0-1.441-0.301-2.002-0.903C396.05,130.899,395.757,130.22,395.757,129.438z
			 M401.352,152.536c0,2.06-0.904,3.089-2.711,3.089c-1.819,0-2.729-1.035-2.729-3.105v-15.451c0-2.109,0.91-3.164,2.729-3.164
			c1.807,0,2.711,1.049,2.711,3.147V152.536z"/>
		<path class="st5" d="M411.977,152.537c0,2.059-0.909,3.088-2.728,3.088c-1.806,0-2.709-1.035-2.709-3.105v-15.451
			c0-2.109,0.902-3.164,2.708-3.164c1.58,0,2.408,0.855,2.483,2.565l0.093,0.714c1.344-2.366,3.404-3.575,6.181-3.626
			c4.468,0.026,6.703,2.501,6.703,7.426v11.535c0,2.07-0.909,3.105-2.728,3.105c-1.807,0-2.709-1.035-2.709-3.105v-9.916
			c0.052-2.791-0.993-4.187-3.135-4.187c-2.724,0.052-4.11,1.526-4.16,4.423V152.537z"/>
		<path class="st5" d="M435.529,152.536c-0.025,2.06-0.921,3.089-2.688,3.089c-1.729,0-2.595-1.035-2.595-3.105v-22.916
			c0-2.083,0.865-3.125,2.595-3.125c1.767,0,2.662,1.042,2.688,3.124v12.167l5.384-6.283c0.411-0.476,0.798-0.854,1.159-1.137
			c0.361-0.27,0.798-0.405,1.309-0.405c0.711,0.026,1.297,0.25,1.758,0.675c0.485,0.451,0.729,1.003,0.729,1.659
			c0,0.45-0.144,0.887-0.43,1.312c-0.274,0.412-0.654,0.868-1.141,1.37l-2.841,3.125l4.785,8.488
			c0.586,0.874,0.892,1.665,0.916,2.372c0,0.798-0.243,1.446-0.729,1.948c-0.461,0.463-1.085,0.707-1.87,0.732
			c-1.296,0-2.28-0.616-2.953-1.851l-4.02-7.424l-2.057,2.3V152.536z"/>
	</g>
</g>
<g>
	<rect x="210.999" y="206" class="st6" width="356" height="129"/>
	<path d="M335.125,208.353v1.901h-1.837v-2.181c0-0.661,0.158-1.202,0.473-1.623s0.77-0.689,1.364-0.807v0.854
		c-0.285,0.037-0.51,0.186-0.677,0.445s-0.25,0.597-0.25,1.011v0.399H335.125z M338.206,208.353v1.901h-1.865v-2.181
		c0-0.655,0.161-1.193,0.482-1.613c0.321-0.421,0.782-0.693,1.382-0.816v0.854c-0.285,0.037-0.51,0.186-0.677,0.445
		s-0.25,0.597-0.25,1.011v0.399H338.206z"/>
	<path d="M341.137,219.661v-13.666h1.855v5.613h7.088v-5.613h1.865v13.666h-1.865v-6.401h-7.088v6.401H341.137z"/>
	<path d="M361.371,216.451h1.651c-0.18,1.095-0.656,1.958-1.429,2.589c-0.773,0.631-1.748,0.945-2.922,0.945
		c-1.379,0-2.468-0.463-3.266-1.391s-1.197-2.193-1.197-3.795c0-1.694,0.396-3.019,1.188-3.971c0.792-0.952,1.883-1.429,3.275-1.429
		c1.429,0,2.534,0.439,3.317,1.317c0.782,0.878,1.173,2.118,1.173,3.721c0,0.203-0.001,0.355-0.004,0.454
		c-0.003,0.099-0.011,0.194-0.023,0.288h-7.171c0.019,1.045,0.278,1.854,0.779,2.426s1.197,0.857,2.087,0.857
		c0.68,0,1.242-0.174,1.684-0.523C360.955,217.591,361.241,217.095,361.371,216.451z M355.953,213.788h5.455
		c-0.006-0.928-0.241-1.643-0.705-2.147c-0.464-0.504-1.123-0.756-1.976-0.756c-0.823,0-1.47,0.247-1.944,0.742
		C356.311,212.122,356.033,212.843,355.953,213.788z"/>
	<path d="M365.091,219.661v-13.666h1.698v13.666H365.091z"/>
	<path d="M369.387,219.661v-13.666h1.698v13.666H369.387z"/>
	<path d="M373.153,214.679c0-1.663,0.416-2.959,1.248-3.887c0.832-0.928,1.999-1.392,3.502-1.392c1.509,0,2.681,0.463,3.516,1.387
		c0.835,0.925,1.252,2.222,1.252,3.892s-0.416,2.969-1.248,3.896c-0.832,0.928-1.999,1.393-3.502,1.393
		c-1.509,0-2.681-0.463-3.516-1.388C373.571,217.656,373.153,216.355,373.153,214.679z M374.86,214.679
		c0,1.231,0.265,2.173,0.793,2.825c0.529,0.653,1.285,0.979,2.269,0.979c0.977,0,1.726-0.326,2.245-0.979
		c0.52-0.652,0.779-1.594,0.779-2.825c0-1.225-0.26-2.162-0.779-2.815c-0.52-0.652-1.268-0.979-2.245-0.979
		c-0.99,0-1.748,0.325-2.273,0.974C375.123,212.509,374.86,213.448,374.86,214.679z"/>
	<path d="M392.283,219.661l-3.553-13.666h1.809l2.792,10.93l2.885-10.93h1.939l2.987,10.855l2.83-10.855h1.763l-3.627,13.666h-1.828
		l-3.108-11.263l-2.987,11.263H392.283z"/>
	<path d="M406.153,214.679c0-1.663,0.416-2.959,1.248-3.887c0.832-0.928,1.999-1.392,3.502-1.392c1.509,0,2.681,0.463,3.516,1.387
		c0.835,0.925,1.252,2.222,1.252,3.892s-0.416,2.969-1.248,3.896c-0.832,0.928-1.999,1.393-3.502,1.393
		c-1.509,0-2.681-0.463-3.516-1.388C406.57,217.656,406.153,216.355,406.153,214.679z M407.86,214.679
		c0,1.231,0.265,2.173,0.793,2.825c0.529,0.653,1.285,0.979,2.269,0.979c0.977,0,1.726-0.326,2.245-0.979
		c0.52-0.652,0.779-1.594,0.779-2.825c0-1.225-0.26-2.162-0.779-2.815c-0.52-0.652-1.268-0.979-2.245-0.979
		c-0.99,0-1.748,0.325-2.273,0.974C408.123,212.509,407.86,213.448,407.86,214.679z"/>
	<path d="M417.703,219.661v-9.936h1.614v1.781c0.266-0.668,0.626-1.168,1.081-1.499c0.455-0.33,1.013-0.496,1.675-0.496
		c0.124,0,0.213,0.002,0.269,0.005s0.111,0.011,0.167,0.023v1.762c-0.043-0.006-0.093-0.01-0.148-0.014
		c-0.056-0.003-0.139-0.004-0.25-0.004c-0.891,0-1.569,0.242-2.036,0.728c-0.467,0.486-0.701,1.192-0.701,2.12v5.529H417.703z"/>
	<path d="M424.03,219.661v-13.666h1.698v13.666H424.03z"/>
	<path d="M436.991,205.995v13.666h-1.614v-1.252c-0.427,0.52-0.909,0.908-1.447,1.168s-1.132,0.391-1.781,0.391
		c-1.324,0-2.379-0.475-3.168-1.425c-0.788-0.949-1.183-2.222-1.183-3.817c0-1.627,0.396-2.921,1.188-3.883
		c0.792-0.961,1.846-1.442,3.164-1.442c0.692,0,1.307,0.129,1.841,0.385c0.535,0.257,0.998,0.642,1.387,1.155v-4.945H436.991z
		 M435.432,214.624c0-1.231-0.249-2.159-0.747-2.783c-0.498-0.625-1.236-0.938-2.213-0.938c-0.94,0-1.667,0.342-2.18,1.025
		c-0.514,0.684-0.77,1.652-0.77,2.908c0,1.132,0.265,2.022,0.793,2.672c0.529,0.649,1.254,0.975,2.176,0.975
		c0.934,0,1.657-0.334,2.171-1.002C435.175,216.813,435.432,215.86,435.432,214.624z"/>
	<path d="M439.774,207.897v-1.902h1.855v2.189c0,0.656-0.161,1.194-0.482,1.615c-0.322,0.42-0.779,0.692-1.373,0.816v-0.854
		c0.291-0.037,0.521-0.188,0.691-0.45c0.17-0.263,0.255-0.602,0.255-1.017v-0.398H439.774z M442.845,207.897v-1.902h1.865v2.189
		c0,0.656-0.161,1.194-0.482,1.615c-0.322,0.42-0.783,0.692-1.382,0.816v-0.854c0.291-0.037,0.522-0.188,0.696-0.45
		c0.173-0.263,0.26-0.602,0.26-1.017v-0.398H442.845z"/>
	<path d="M218.105,242.461v-13.666h9.175v1.717h-7.32v4.101h6.392v1.67h-6.392v6.179H218.105z"/>
	<path d="M228.654,242.461v-9.936h1.614v1.781c0.266-0.668,0.626-1.168,1.081-1.499c0.455-0.33,1.013-0.496,1.675-0.496
		c0.124,0,0.213,0.002,0.269,0.005s0.111,0.011,0.167,0.023v1.762c-0.043-0.006-0.093-0.01-0.148-0.014
		c-0.056-0.003-0.139-0.004-0.25-0.004c-0.891,0-1.569,0.242-2.036,0.728c-0.467,0.486-0.701,1.192-0.701,2.12v5.529H228.654z"/>
	<path d="M234.452,237.479c0-1.663,0.416-2.959,1.248-3.887c0.832-0.928,1.999-1.392,3.502-1.392c1.509,0,2.681,0.463,3.516,1.387
		c0.835,0.925,1.252,2.222,1.252,3.892s-0.416,2.969-1.248,3.896c-0.832,0.928-1.999,1.393-3.502,1.393
		c-1.509,0-2.681-0.463-3.516-1.388C234.87,240.456,234.452,239.155,234.452,237.479z M236.159,237.479
		c0,1.231,0.265,2.173,0.793,2.825c0.529,0.653,1.285,0.979,2.269,0.979c0.977,0,1.726-0.326,2.245-0.979
		c0.52-0.652,0.779-1.594,0.779-2.825c0-1.225-0.26-2.162-0.779-2.815c-0.52-0.652-1.268-0.979-2.245-0.979
		c-0.99,0-1.748,0.325-2.273,0.974C236.422,235.309,236.159,236.248,236.159,237.479z"/>
	<path d="M258.109,242.461v-6.113c0-1.002-0.136-1.688-0.408-2.056c-0.272-0.367-0.746-0.552-1.419-0.552
		c-0.804,0-1.429,0.249-1.874,0.747s-0.668,1.198-0.668,2.101v5.873h-1.698v-6.113c0-1.002-0.136-1.688-0.408-2.056
		c-0.272-0.367-0.742-0.552-1.41-0.552c-0.798,0-1.423,0.252-1.874,0.756c-0.452,0.505-0.677,1.201-0.677,2.092v5.873h-1.67v-9.936
		h1.596v1.4c0.371-0.557,0.81-0.971,1.317-1.243c0.507-0.272,1.101-0.408,1.781-0.408c0.618,0,1.147,0.125,1.586,0.376
		c0.439,0.25,0.816,0.645,1.132,1.183c0.433-0.538,0.906-0.933,1.419-1.183c0.513-0.251,1.104-0.376,1.772-0.376
		c0.643,0,1.203,0.116,1.679,0.348c0.476,0.232,0.841,0.567,1.095,1.007c0.142,0.254,0.244,0.557,0.306,0.909
		c0.062,0.353,0.093,0.909,0.093,1.67v0.288v5.965H258.109z"/>
	<path d="M277.258,237.387h1.8c-0.081,1.663-0.648,2.988-1.702,3.975c-1.055,0.987-2.417,1.48-4.087,1.48
		c-1.924,0-3.431-0.656-4.522-1.967c-1.092-1.312-1.638-3.127-1.638-5.446c0-2.14,0.572-3.839,1.716-5.098
		c1.144-1.259,2.687-1.888,4.629-1.888c1.546,0,2.813,0.398,3.799,1.196c0.987,0.798,1.557,1.887,1.712,3.266h-1.818
		c-0.173-0.903-0.584-1.597-1.234-2.083c-0.649-0.485-1.494-0.729-2.533-0.729c-1.386,0-2.46,0.486-3.224,1.457
		c-0.764,0.971-1.146,2.341-1.146,4.109c0,1.67,0.397,3.01,1.192,4.018c0.795,1.008,1.848,1.512,3.159,1.512
		c1.119,0,2.036-0.348,2.751-1.043C276.826,239.45,277.208,238.53,277.258,237.387z"/>
	<path d="M281.247,242.461v-13.666h5.028c0.816,0,1.438,0.041,1.865,0.121s0.807,0.213,1.141,0.398
		c0.557,0.304,0.983,0.752,1.28,1.346s0.445,1.289,0.445,2.088c0,0.76-0.148,1.432-0.445,2.013s-0.73,1.045-1.299,1.392
		c-0.328,0.198-0.713,0.339-1.155,0.422c-0.442,0.084-1.17,0.125-2.185,0.125h-2.82v5.762H281.247z M283.103,235.049h3.117
		c1.082,0,1.838-0.174,2.269-0.52c0.43-0.347,0.645-0.94,0.645-1.781c0-0.811-0.213-1.393-0.64-1.744
		c-0.427-0.354-1.138-0.529-2.134-0.529h-3.256V235.049z"/>
	<path d="M293.141,237.275v-8.48h1.855v8.498c0,1.281,0.283,2.227,0.849,2.84c0.566,0.611,1.443,0.918,2.63,0.918
		c1.175,0,2.052-0.311,2.63-0.933c0.578-0.621,0.867-1.563,0.867-2.825v-8.498h1.865v8.48c0,1.83-0.472,3.216-1.415,4.156
		c-0.943,0.939-2.331,1.41-4.161,1.41c-1.707,0-2.987-0.465-3.841-1.393S293.141,239.131,293.141,237.275z"/>
	<path d="M313.653,239.956c0,0.445,0.063,0.742,0.19,0.891c0.126,0.148,0.36,0.223,0.7,0.223c0.099,0,0.218-0.003,0.357-0.009
		c0.139-0.007,0.32-0.02,0.542-0.037v1.419c-0.278,0.05-0.527,0.087-0.747,0.111c-0.22,0.024-0.417,0.037-0.589,0.037
		c-0.786,0-1.336-0.151-1.651-0.454c-0.315-0.304-0.473-0.842-0.473-1.615v-6.67h-1.484v-1.326h1.484v-2.774h1.67v2.774h1.791v1.326
		h-1.791V239.956z"/>
	<path d="M316.52,237.479c0-1.663,0.416-2.959,1.248-3.887c0.832-0.928,1.999-1.392,3.502-1.392c1.509,0,2.681,0.463,3.516,1.387
		c0.835,0.925,1.252,2.222,1.252,3.892s-0.416,2.969-1.248,3.896c-0.832,0.928-1.999,1.393-3.502,1.393
		c-1.509,0-2.681-0.463-3.516-1.388C316.937,240.456,316.52,239.155,316.52,237.479z M318.227,237.479
		c0,1.231,0.265,2.173,0.793,2.825c0.529,0.653,1.285,0.979,2.269,0.979c0.977,0,1.726-0.326,2.245-0.979
		c0.52-0.652,0.779-1.594,0.779-2.825c0-1.225-0.26-2.162-0.779-2.815c-0.52-0.652-1.268-0.979-2.245-0.979
		c-0.99,0-1.748,0.325-2.273,0.974C318.489,235.309,318.227,236.248,318.227,237.479z"/>
	<path d="M335.232,239.956c0,0.445,0.063,0.742,0.19,0.891c0.126,0.148,0.36,0.223,0.7,0.223c0.099,0,0.218-0.003,0.357-0.009
		c0.139-0.007,0.32-0.02,0.542-0.037v1.419c-0.278,0.05-0.527,0.087-0.747,0.111c-0.22,0.024-0.417,0.037-0.589,0.037
		c-0.786,0-1.336-0.151-1.651-0.454c-0.315-0.304-0.473-0.842-0.473-1.615v-6.67h-1.484v-1.326h1.484v-2.774h1.67v2.774h1.791v1.326
		h-1.791V239.956z"/>
	<path d="M345.298,239.251h1.651c-0.18,1.095-0.656,1.958-1.429,2.589c-0.773,0.631-1.748,0.945-2.922,0.945
		c-1.379,0-2.468-0.463-3.266-1.391s-1.197-2.193-1.197-3.795c0-1.694,0.396-3.019,1.188-3.971c0.792-0.952,1.883-1.429,3.275-1.429
		c1.429,0,2.534,0.439,3.317,1.317c0.782,0.878,1.173,2.118,1.173,3.721c0,0.203-0.001,0.355-0.004,0.454
		c-0.003,0.099-0.011,0.194-0.023,0.288h-7.171c0.019,1.045,0.278,1.854,0.779,2.426s1.197,0.857,2.087,0.857
		c0.68,0,1.242-0.174,1.684-0.523C344.882,240.391,345.168,239.895,345.298,239.251z M339.88,236.588h5.455
		c-0.006-0.928-0.241-1.643-0.705-2.147c-0.464-0.504-1.123-0.756-1.976-0.756c-0.823,0-1.47,0.247-1.944,0.742
		C340.237,234.922,339.96,235.643,339.88,236.588z"/>
	<path d="M349,242.461v-9.936h1.614v1.781c0.266-0.668,0.626-1.168,1.081-1.499c0.455-0.33,1.013-0.496,1.675-0.496
		c0.124,0,0.213,0.002,0.269,0.005s0.111,0.011,0.167,0.023v1.762c-0.043-0.006-0.093-0.01-0.148-0.014
		c-0.056-0.003-0.139-0.004-0.25-0.004c-0.891,0-1.569,0.242-2.036,0.728c-0.467,0.486-0.701,1.192-0.701,2.12v5.529H349z"/>
	<path d="M367.415,242.461v-6.113c0-1.002-0.136-1.688-0.408-2.056c-0.272-0.367-0.746-0.552-1.419-0.552
		c-0.804,0-1.429,0.249-1.874,0.747s-0.668,1.198-0.668,2.101v5.873h-1.698v-6.113c0-1.002-0.136-1.688-0.408-2.056
		c-0.272-0.367-0.742-0.552-1.41-0.552c-0.798,0-1.423,0.252-1.874,0.756c-0.452,0.505-0.677,1.201-0.677,2.092v5.873h-1.67v-9.936
		h1.596v1.4c0.371-0.557,0.81-0.971,1.317-1.243c0.507-0.272,1.101-0.408,1.781-0.408c0.618,0,1.147,0.125,1.586,0.376
		c0.439,0.25,0.816,0.645,1.132,1.183c0.433-0.538,0.906-0.933,1.419-1.183c0.513-0.251,1.104-0.376,1.772-0.376
		c0.643,0,1.203,0.116,1.679,0.348c0.476,0.232,0.841,0.567,1.095,1.007c0.142,0.254,0.244,0.557,0.306,0.909
		c0.062,0.353,0.093,0.909,0.093,1.67v0.288v5.965H367.415z"/>
	<path d="M371.608,230.697v-1.902h1.67v1.902H371.608z M371.608,242.461v-9.936h1.67v9.936H371.608z"/>
	<path d="M382.444,242.461v-6.113c0-0.978-0.15-1.653-0.45-2.027c-0.3-0.374-0.815-0.562-1.544-0.562
		c-0.934,0-1.659,0.265-2.175,0.793c-0.517,0.529-0.775,1.279-0.775,2.25v5.659h-1.67v-9.936h1.596v1.447
		c0.383-0.576,0.838-1.002,1.364-1.281c0.525-0.277,1.135-0.417,1.828-0.417c0.748,0,1.379,0.113,1.893,0.339
		c0.513,0.226,0.909,0.564,1.188,1.016c0.154,0.241,0.266,0.524,0.334,0.849c0.068,0.325,0.102,0.84,0.102,1.545v0.474v5.965
		H382.444z"/>
	<path d="M392.779,241.135c-0.52,0.544-1.072,0.952-1.656,1.225c-0.585,0.271-1.205,0.408-1.86,0.408
		c-1.015,0-1.806-0.265-2.375-0.794c-0.569-0.528-0.854-1.26-0.854-2.194c0-0.902,0.28-1.61,0.84-2.124
		c0.56-0.514,1.411-0.845,2.556-0.993c0.291-0.03,0.683-0.074,1.178-0.129c0.847-0.087,1.367-0.171,1.559-0.251
		c0.191-0.074,0.318-0.172,0.38-0.292c0.062-0.121,0.093-0.382,0.093-0.784c0-0.507-0.186-0.888-0.557-1.142
		c-0.371-0.253-0.931-0.38-1.679-0.38c-0.773,0-1.356,0.154-1.749,0.464c-0.393,0.31-0.589,0.767-0.589,1.373h-1.577v-0.074
		c0-1.002,0.353-1.794,1.058-2.375s1.676-0.872,2.913-0.872c1.33,0,2.309,0.249,2.936,0.747c0.628,0.498,0.942,1.275,0.942,2.333
		v4.973c0,0.427,0.046,0.702,0.139,0.825c0.093,0.124,0.26,0.186,0.501,0.186c0.049,0,0.11-0.004,0.181-0.014
		c0.071-0.009,0.156-0.023,0.255-0.041v1.289c-0.204,0.056-0.382,0.094-0.534,0.116c-0.151,0.021-0.295,0.032-0.431,0.032
		c-0.557,0-0.974-0.121-1.252-0.361c-0.278-0.242-0.417-0.606-0.417-1.096V241.135z M392.622,237.404
		c-0.445,0.242-1.209,0.431-2.292,0.566c-0.384,0.05-0.671,0.09-0.863,0.121c-0.606,0.099-1.042,0.277-1.308,0.537
		c-0.266,0.26-0.399,0.638-0.399,1.133c0,0.494,0.154,0.875,0.464,1.141c0.309,0.266,0.751,0.398,1.327,0.398
		c0.896,0,1.633-0.226,2.208-0.677s0.863-1.03,0.863-1.735V237.404z"/>
	<path d="M396.973,242.461v-13.666h1.698v13.666H396.973z"/>
	<path d="M406.454,230.697v-1.902h1.67v1.902H406.454z M406.454,242.461v-9.936h1.67v9.936H406.454z"/>
	<path d="M417.29,242.461v-6.113c0-0.978-0.15-1.653-0.45-2.027c-0.3-0.374-0.815-0.562-1.544-0.562
		c-0.934,0-1.659,0.265-2.175,0.793c-0.517,0.529-0.775,1.279-0.775,2.25v5.659h-1.67v-9.936h1.596v1.447
		c0.383-0.576,0.838-1.002,1.364-1.281c0.525-0.277,1.135-0.417,1.828-0.417c0.748,0,1.379,0.113,1.893,0.339
		c0.513,0.226,0.909,0.564,1.188,1.016c0.154,0.241,0.266,0.524,0.334,0.849c0.068,0.325,0.102,0.84,0.102,1.545v0.474v5.965H417.29
		z"/>
	<path d="M426.066,236.022c0-2.239,0.386-3.939,1.16-5.103c0.773-1.163,1.905-1.744,3.396-1.744c1.497,0,2.635,0.58,3.414,1.739
		c0.779,1.16,1.169,2.862,1.169,5.107c0,2.232-0.388,3.928-1.165,5.084c-0.776,1.156-1.916,1.735-3.418,1.735
		c-1.491,0-2.623-0.579-3.396-1.735C426.453,239.95,426.066,238.255,426.066,236.022z M427.885,236.022
		c0,1.831,0.219,3.165,0.659,4.003c0.439,0.839,1.132,1.258,2.078,1.258c0.952,0,1.647-0.416,2.083-1.248
		c0.437-0.832,0.654-2.17,0.654-4.013c0-1.85-0.218-3.192-0.654-4.031c-0.436-0.838-1.13-1.257-2.083-1.257
		c-0.946,0-1.639,0.422-2.078,1.267C428.104,232.845,427.885,234.186,427.885,236.022z"/>
	<path d="M437.496,242.461v-2.051h1.902v2.218c0,0.699-0.166,1.277-0.497,1.735c-0.331,0.457-0.799,0.76-1.405,0.908v-0.945
		c0.297-0.063,0.527-0.231,0.691-0.506c0.164-0.275,0.246-0.633,0.246-1.072v-0.287H437.496z"/>
	<path d="M443.916,235.354c-0.588-0.266-1.025-0.628-1.313-1.085c-0.287-0.458-0.431-1.021-0.431-1.689
		c0-1.014,0.374-1.835,1.123-2.463c0.748-0.627,1.735-0.941,2.959-0.941c1.23,0,2.223,0.315,2.978,0.946
		c0.754,0.631,1.132,1.45,1.132,2.458c0,0.668-0.146,1.231-0.436,1.689c-0.291,0.457-0.73,0.819-1.317,1.085
		c0.729,0.284,1.28,0.707,1.651,1.267s0.557,1.244,0.557,2.055c0,1.268-0.413,2.279-1.239,3.033
		c-0.825,0.755-1.934,1.133-3.326,1.133s-2.496-0.378-3.312-1.133c-0.816-0.754-1.225-1.766-1.225-3.033
		c0-0.811,0.186-1.495,0.557-2.055S443.192,235.639,443.916,235.354z M443.554,238.639c0,0.811,0.241,1.447,0.724,1.911
		s1.141,0.696,1.976,0.696c0.841,0,1.504-0.233,1.99-0.701c0.486-0.467,0.729-1.103,0.729-1.906c0-0.748-0.243-1.341-0.729-1.776
		c-0.485-0.437-1.149-0.654-1.99-0.654c-0.841,0-1.501,0.217-1.981,0.649C443.794,237.29,443.554,237.884,443.554,238.639z
		 M443.953,232.729c0,0.631,0.21,1.139,0.631,1.521c0.42,0.384,0.977,0.576,1.67,0.576c0.692,0,1.249-0.192,1.67-0.576
		c0.42-0.383,0.631-0.891,0.631-1.521c0-0.637-0.203-1.135-0.608-1.493c-0.405-0.358-0.969-0.538-1.693-0.538
		c-0.718,0-1.28,0.18-1.688,0.538S443.953,232.092,443.953,232.729z"/>
	<path d="M457.73,242.461v-3.266h-5.78v-1.67l5.761-7.969h1.726v8.117h1.883v1.521h-1.883v3.266H457.73z M453.546,237.674h4.184
		v-5.91L453.546,237.674z"/>
	<path d="M465.477,232.525l-1.197,5.566c-0.043,0.197-0.076,0.397-0.098,0.598c-0.021,0.201-0.032,0.413-0.032,0.636
		c0,0.612,0.161,1.085,0.482,1.419c0.321,0.334,0.779,0.502,1.373,0.502c0.816,0,1.461-0.286,1.935-0.858
		c0.473-0.572,0.854-1.536,1.146-2.89l1.067-4.973h1.651l-1.447,6.791c-0.006,0.037-0.019,0.099-0.037,0.186
		c-0.111,0.537-0.167,0.884-0.167,1.039c0,0.229,0.051,0.391,0.153,0.486c0.103,0.097,0.274,0.145,0.515,0.145
		c0.074,0,0.131-0.002,0.171-0.005c0.041-0.003,0.082-0.008,0.125-0.015l-0.288,1.327c-0.148,0.031-0.303,0.054-0.464,0.069
		c-0.161,0.016-0.34,0.023-0.538,0.023c-0.39,0-0.69-0.09-0.9-0.27c-0.21-0.179-0.371-0.488-0.482-0.928
		c-0.278,0.408-0.626,0.714-1.043,0.914c-0.418,0.201-0.908,0.302-1.471,0.302c-0.507,0-0.95-0.085-1.327-0.255
		c-0.377-0.17-0.727-0.444-1.048-0.821l-1.021,4.917h-1.679l2.95-13.906H465.477z"/>
	<path d="M473.177,239.232h1.605c0.062,0.674,0.305,1.185,0.728,1.531c0.424,0.346,1.025,0.52,1.805,0.52
		c0.717,0,1.283-0.141,1.698-0.423c0.414-0.281,0.622-0.666,0.622-1.155c0-0.364-0.104-0.645-0.311-0.839
		c-0.208-0.195-0.611-0.363-1.211-0.506l-1.865-0.482c-1.052-0.254-1.783-0.589-2.194-1.007c-0.412-0.417-0.617-1.013-0.617-1.785
		c0-0.879,0.333-1.576,0.997-2.093c0.665-0.516,1.576-0.774,2.732-0.774c1.181,0,2.121,0.275,2.82,0.826
		c0.699,0.55,1.048,1.289,1.048,2.217v0.037h-1.624c-0.037-0.525-0.252-0.933-0.645-1.22c-0.393-0.288-0.927-0.432-1.601-0.432
		c-0.674,0-1.186,0.117-1.535,0.353c-0.35,0.235-0.524,0.578-0.524,1.029c0,0.322,0.11,0.574,0.329,0.757
		c0.22,0.183,0.629,0.342,1.229,0.478l1.614,0.381c1.15,0.271,1.942,0.62,2.375,1.043c0.433,0.424,0.649,1.028,0.649,1.814
		c0,1.032-0.363,1.835-1.09,2.407c-0.727,0.571-1.743,0.858-3.048,0.858c-1.274,0-2.253-0.304-2.937-0.91
		C473.546,241.252,473.195,240.377,473.177,239.232z"/>
	<path d="M490.312,242.461l-2.969-9.936h1.735l2.106,7.598l1.958-7.598h1.939l1.939,7.598l2.18-7.598h1.716l-3.024,9.936h-1.688
		l-2.097-7.654L492,242.461H490.312z"/>
	<path d="M502.317,230.697v-1.902h1.67v1.902H502.317z M502.317,242.461v-9.936h1.67v9.936H502.317z"/>
	<path d="M508.496,239.956c0,0.445,0.063,0.742,0.19,0.891c0.126,0.148,0.36,0.223,0.7,0.223c0.099,0,0.218-0.003,0.357-0.009
		c0.139-0.007,0.32-0.02,0.542-0.037v1.419c-0.278,0.05-0.527,0.087-0.747,0.111c-0.22,0.024-0.417,0.037-0.589,0.037
		c-0.786,0-1.336-0.151-1.651-0.454c-0.315-0.304-0.473-0.842-0.473-1.615v-6.67h-1.484v-1.326h1.484v-2.774h1.67v2.774h1.791v1.326
		h-1.791V239.956z"/>
	<path d="M518.487,242.461v-6.113c0-0.984-0.15-1.661-0.45-2.032c-0.3-0.371-0.815-0.557-1.544-0.557
		c-0.903,0-1.621,0.255-2.152,0.766c-0.532,0.51-0.798,1.198-0.798,2.063v5.873h-1.67v-13.666h1.67v5.131
		c0.303-0.538,0.72-0.947,1.252-1.229c0.532-0.281,1.153-0.422,1.865-0.422c0.748,0,1.379,0.113,1.893,0.339
		c0.513,0.226,0.909,0.564,1.188,1.016c0.154,0.241,0.266,0.524,0.334,0.849c0.068,0.325,0.102,0.84,0.102,1.545v0.474v5.965
		H518.487z"/>
	<path d="M528.08,228.795h5.297c0.859,0,1.492,0.037,1.897,0.111c0.405,0.074,0.769,0.198,1.09,0.371
		c0.575,0.316,1.013,0.755,1.313,1.318c0.3,0.563,0.45,1.225,0.45,1.984c0,0.736-0.158,1.366-0.473,1.889s-0.786,0.932-1.41,1.229
		c0.532,0.148,0.911,0.399,1.137,0.752c0.226,0.353,0.366,0.949,0.422,1.791l0.158,2.254c0.031,0.482,0.094,0.843,0.19,1.081
		c0.096,0.238,0.24,0.406,0.432,0.505v0.381h-2.143c-0.173-0.284-0.294-0.894-0.362-1.828c0-0.024,0-0.043,0-0.055l-0.111-1.781
		c-0.062-0.916-0.257-1.51-0.584-1.781c-0.328-0.272-1.147-0.408-2.458-0.408h-3.006v5.854h-1.837V228.795z M529.898,230.4v4.629
		h3.173c1.144,0,1.953-0.186,2.426-0.557c0.474-0.371,0.71-0.989,0.71-1.855c0-0.81-0.223-1.382-0.668-1.716
		s-1.268-0.501-2.468-0.501H529.898z"/>
	<path d="M543.712,242.461v-12.005h-4.314v-1.661h10.493v1.661h-4.314v12.005H543.712z"/>
	<path d="M554.994,242.461v-12.005h-4.314v-1.661h10.493v1.661h-4.314v12.005H554.994z"/>
</g>
<g>
</g>
<g>
</g>
<g>
</g>
<g>
</g>
<g>
</g>
<g>
</g>
<g>
</g>
<g>
</g>
<g>
</g>
<g>
</g>
<g>
</g>
<g>
</g>
<g>
</g>
<g>
</g>
<g>
</g>
</svg>
